<svg width="970" height="553" viewBox="0 0 970 553" fill="none" xmlns="http://www.w3.org/2000/svg">
<path d="M648.5 173.5C648.5 266.503 566.691 342.5 465 342.5C363.309 342.5 281.5 266.503 281.5 173.5C281.5 80.4971 363.309 4.5 465 4.5C566.691 4.5 648.5 80.4971 648.5 173.5Z" fill="white" stroke="#49B646" stroke-width="9"/>
<rect width="49.724" height="153.077" rx="24.862" transform="matrix(0.640312 -0.768115 0.768859 0.639418 327 194.12)" fill="#4BA543"/>
<rect width="49.7373" height="249.323" rx="24.8687" transform="matrix(-0.797456 -0.603377 0.604285 -0.796769 451.49 284.663)" fill="#4BA543"/>
<path d="M55.7656 487.359C55.7656 486.031 55.4922 484.508 54.9453 482.789C54.4766 480.992 53.6953 479.234 52.6016 477.516C51.5078 475.797 50.1406 474.234 48.5 472.828C46.8594 471.422 44.9453 470.406 42.7578 469.781C38.5391 468.688 34.9062 467.906 31.8594 467.438C28.8125 466.969 26.0391 466.734 23.5391 466.734C20.8047 466.734 18.2656 466.969 15.9219 467.438C13.6562 467.906 11.1562 468.453 8.42188 469.078C8.73438 471.734 9.00781 474.664 9.24219 477.867C9.55469 480.992 9.78906 484.078 9.94531 487.125C10.1797 490.172 10.3359 493.062 10.4141 495.797C10.5703 498.531 10.6484 500.758 10.6484 502.477C10.6484 502.867 10.6484 503.336 10.6484 503.883C10.6484 504.43 10.6875 505.016 10.7656 505.641C11.8594 505.641 12.9141 505.641 13.9297 505.641C15.0234 505.641 16.1172 505.68 17.2109 505.758C18.9297 505.836 20.6094 505.875 22.25 505.875C23.9688 505.875 25.6875 505.875 27.4062 505.875C30.5312 505.875 33.4609 505.797 36.1953 505.641C39.0078 505.484 41.4297 505.133 43.4609 504.586C46.1172 503.805 48.2266 502.906 49.7891 501.891C51.3516 500.797 52.5234 499.625 53.3047 498.375C54.0859 497.125 54.5938 495.758 54.8281 494.273C55.1406 492.789 55.375 491.266 55.5312 489.703L55.6484 488.297L55.7656 487.359ZM44.3984 463.453C47.2891 464.234 49.8672 465.523 52.1328 467.32C54.3984 469.117 56.2734 471.148 57.7578 473.414C59.2422 475.68 60.375 478.062 61.1562 480.562C61.9375 482.984 62.3281 485.25 62.3281 487.359C62.3281 487.672 62.2891 487.945 62.2109 488.18C62.2109 488.414 62.2109 488.688 62.2109 489L62.0938 490.406C61.9375 492.047 61.6641 493.844 61.2734 495.797C60.8828 497.672 60.1406 499.547 59.0469 501.422C57.9531 503.297 56.3125 505.094 54.125 506.812C51.9375 508.453 48.9688 509.781 45.2188 510.797C42.875 511.5 40.1797 511.969 37.1328 512.203C34.1641 512.359 30.9609 512.438 27.5234 512.438C25.8047 512.438 24.0859 512.438 22.3672 512.438C20.6484 512.438 18.8906 512.398 17.0938 512.32C16.0781 512.242 15.0625 512.203 14.0469 512.203C13.1094 512.203 12.1328 512.203 11.1172 512.203C11.3516 515.641 11.6641 519.352 12.0547 523.336C12.4453 527.242 12.7969 530.914 13.1094 534.352C13.5 537.789 13.8125 540.68 14.0469 543.023C14.3594 545.367 14.5156 546.617 14.5156 546.773C14.5156 547.633 14.2031 548.375 13.5781 549C13.0312 549.625 12.25 549.977 11.2344 550.055C10.375 550.055 9.63281 549.781 9.00781 549.234C8.38281 548.688 8.03125 547.984 7.95312 547.125C7.875 546.891 7.71875 545.836 7.48438 543.961C7.32812 542.086 7.09375 539.781 6.78125 537.047C6.54688 534.234 6.27344 531.148 5.96094 527.789C5.64844 524.43 5.33594 521.148 5.02344 517.945C4.78906 514.664 4.55469 511.656 4.32031 508.922C4.16406 506.188 4.08594 504.039 4.08594 502.477C4.08594 500.523 4.00781 498.141 3.85156 495.328C3.77344 492.516 3.61719 489.547 3.38281 486.422C3.14844 483.297 2.875 480.211 2.5625 477.164C2.32812 474.039 2.05469 471.227 1.74219 468.727C1.58594 468.57 1.46875 468.375 1.39062 468.141C1.3125 467.828 1.19531 467.359 1.03906 466.734C1.03906 466.422 1.11719 466.031 1.27344 465.562C1.19531 465.172 1.11719 464.742 1.03906 464.273C1.03906 463.805 0.960938 463.258 0.804688 462.633C0.804688 461.852 1.07812 461.148 1.625 460.523C2.17188 459.898 2.99219 459.508 4.08594 459.352C4.86719 459.352 5.57031 459.625 6.19531 460.172C6.82031 460.719 7.21094 461.539 7.36719 462.633C10.1797 461.93 12.8359 461.344 15.3359 460.875C17.8359 460.406 20.5312 460.172 23.4219 460.172C26.1562 460.172 29.1641 460.445 32.4453 460.992C35.8047 461.461 39.7891 462.281 44.3984 463.453ZM95.7266 509.039C99.9453 509.039 103.578 509.195 106.625 509.508C109.672 509.742 112.094 509.977 113.891 510.211C113.5 509.117 113.148 508.141 112.836 507.281C112.602 506.422 112.367 505.68 112.133 505.055C111.664 503.18 111 500.914 110.141 498.258C109.281 495.523 108.305 492.672 107.211 489.703C106.195 486.656 105.141 483.648 104.047 480.68C102.953 477.633 101.898 474.859 100.883 472.359C99.7109 474.859 98.4609 477.633 97.1328 480.68C95.8828 483.648 94.6328 486.656 93.3828 489.703C92.2109 492.672 91.0781 495.523 89.9844 498.258C88.9688 500.992 88.1484 503.297 87.5234 505.172C87.3672 505.797 87.1328 506.461 86.8203 507.164C86.5859 507.789 86.3125 508.531 86 509.391C89.125 509.156 92.3672 509.039 95.7266 509.039ZM118.461 503.297C118.852 504.781 119.516 506.891 120.453 509.625C121.469 512.359 122.562 515.367 123.734 518.648C124.906 521.852 126.117 525.133 127.367 528.492C128.695 531.852 129.867 534.938 130.883 537.75C131.898 540.484 132.758 542.75 133.461 544.547C134.164 546.266 134.516 547.164 134.516 547.242C134.672 547.555 134.75 547.945 134.75 548.414C134.75 549.898 134.047 550.914 132.641 551.461C132.406 551.617 132.016 551.695 131.469 551.695C130.844 551.695 130.219 551.5 129.594 551.109C129.047 550.797 128.656 550.289 128.422 549.586C128.344 549.352 127.875 548.18 127.016 546.07C126.156 543.883 125.102 541.227 123.852 538.102C122.68 534.977 121.352 531.578 119.867 527.906C118.383 524.156 116.938 520.602 115.531 517.242C113.969 517.008 112.172 516.734 110.141 516.422C108.422 516.266 106.312 516.109 103.812 515.953C101.391 515.719 98.6953 515.602 95.7266 515.602C93.6953 515.602 91.5859 515.68 89.3984 515.836C87.2891 515.914 85.2188 516.031 83.1875 516.188C81.7812 519.547 80.2578 523.141 78.6172 526.969C76.9766 530.797 75.4141 534.352 73.9297 537.633C72.4453 540.914 71.1953 543.727 70.1797 546.07C69.1641 548.336 68.6172 549.586 68.5391 549.82C67.9141 551.07 66.8984 551.695 65.4922 551.695C64.9453 551.695 64.5156 551.617 64.2031 551.461C62.875 550.836 62.2109 549.82 62.2109 548.414C62.2109 548.023 62.3281 547.594 62.5625 547.125C62.5625 547.047 62.9922 546.07 63.8516 544.195C64.7109 542.242 65.7656 539.82 67.0156 536.93C68.3438 533.961 69.7891 530.719 71.3516 527.203C72.9141 523.609 74.3984 520.172 75.8047 516.891C73.6172 517.125 71.8203 517.359 70.4141 517.594C69.0078 517.75 68.1875 517.828 67.9531 517.828C67.0938 517.828 66.3516 517.555 65.7266 517.008C65.1797 516.461 64.8281 515.641 64.6719 514.547C64.6719 513.688 64.9062 512.984 65.375 512.438C65.9219 511.812 66.625 511.422 67.4844 511.266C67.6406 511.266 68.7344 511.148 70.7656 510.914C72.875 510.602 75.4922 510.289 78.6172 509.977C79.2422 508.57 79.75 507.281 80.1406 506.109C80.6094 504.938 81 503.922 81.3125 503.062C82.0156 500.953 83.0312 498.18 84.3594 494.742C85.7656 491.227 87.25 487.594 88.8125 483.844C90.375 480.016 91.9375 476.344 93.5 472.828C95.1406 469.234 96.5469 466.266 97.7188 463.922C97.875 462.672 98.5 461.773 99.5938 461.227C99.9062 461.07 100.414 460.992 101.117 460.992C101.742 460.992 102.289 461.109 102.758 461.344C103.773 461.891 104.359 462.789 104.516 464.039C105.531 466.383 106.703 469.352 108.031 472.945C109.438 476.539 110.805 480.25 112.133 484.078C113.539 487.828 114.789 491.461 115.883 494.977C116.977 498.414 117.836 501.188 118.461 503.297ZM202.719 504.469C204.438 504.469 205.492 505.367 205.883 507.164C206.352 509.273 206.781 512.164 207.172 515.836C207.562 519.508 207.914 523.336 208.227 527.32C208.539 531.227 208.773 535.055 208.93 538.805C209.164 542.477 209.281 545.445 209.281 547.711C209.281 548.57 208.93 549.312 208.227 549.938C207.602 550.641 206.859 550.992 206 550.992C205.062 550.992 204.281 550.641 203.656 549.938C203.031 549.312 202.719 548.57 202.719 547.711C202.719 546.852 202.68 545.914 202.602 544.898C202.602 543.805 202.562 542.672 202.484 541.5C201.625 542.203 200.492 543.023 199.086 543.961C197.68 544.82 196.039 545.68 194.164 546.539C192.289 547.32 190.18 547.984 187.836 548.531C185.492 549.078 182.992 549.352 180.336 549.352C177.523 549.352 174.516 549 171.312 548.297C168.109 547.594 164.906 546.5 161.703 545.016C158.578 543.453 155.57 541.5 152.68 539.156C149.867 536.812 147.328 533.961 145.062 530.602C142.875 527.242 141.117 523.375 139.789 519C138.539 514.547 137.914 509.547 137.914 504C137.914 501.422 137.992 499.195 138.148 497.32C138.305 495.367 138.539 493.648 138.852 492.164C139.242 490.602 139.711 489.195 140.258 487.945C140.805 486.695 141.43 485.484 142.133 484.312C142.211 484.156 142.797 483.18 143.891 481.383C144.984 479.586 146.352 477.594 147.992 475.406C149.711 473.141 151.586 470.953 153.617 468.844C155.727 466.656 157.797 465.094 159.828 464.156C162.094 463.141 164.398 462.438 166.742 462.047C169.164 461.578 171.43 461.344 173.539 461.344C175.727 461.344 177.68 461.539 179.398 461.93C180.18 462.086 181.234 462.398 182.562 462.867C183.891 463.258 185.219 463.727 186.547 464.273C187.875 464.82 189.125 465.406 190.297 466.031C191.469 466.656 192.289 467.242 192.758 467.789C193.227 468.414 193.461 469.117 193.461 469.898C193.461 470.992 193.07 471.812 192.289 472.359C191.742 472.906 191.039 473.18 190.18 473.18C189.32 473.18 188.539 472.828 187.836 472.125C187.602 471.969 187.094 471.734 186.312 471.422C185.609 471.031 184.789 470.641 183.852 470.25C182.914 469.859 181.898 469.508 180.805 469.195C179.789 468.805 178.812 468.492 177.875 468.258C177.25 468.102 176.586 467.984 175.883 467.906C175.18 467.828 174.398 467.789 173.539 467.789C171.82 467.789 169.984 467.984 168.031 468.375C166.156 468.688 164.32 469.273 162.523 470.133C161.43 470.602 160.219 471.5 158.891 472.828C157.562 474.156 156.195 475.68 154.789 477.398C153.461 479.039 152.172 480.797 150.922 482.672C149.75 484.469 148.734 486.109 147.875 487.594C147.25 488.531 146.742 489.508 146.352 490.523C145.961 491.539 145.609 492.672 145.297 493.922C144.984 495.172 144.75 496.617 144.594 498.258C144.516 499.898 144.477 501.812 144.477 504C144.477 509.312 145.141 513.961 146.469 517.945C147.797 521.852 149.477 525.25 151.508 528.141C153.617 531.031 156 533.414 158.656 535.289C161.312 537.164 163.969 538.688 166.625 539.859C169.281 540.953 171.82 541.734 174.242 542.203C176.664 542.594 178.695 542.789 180.336 542.789C183.305 542.789 185.961 542.398 188.305 541.617C190.727 540.836 192.797 539.977 194.516 539.039C196.234 538.102 197.562 537.203 198.5 536.344L199.789 535.172C200.414 534.547 201.195 534.234 202.133 534.234C201.898 530.25 201.586 526.227 201.195 522.164C200.805 518.023 200.414 514.547 200.023 511.734C197.055 511.891 194.164 512.086 191.352 512.32C188.539 512.477 186 512.672 183.734 512.906C181.547 513.141 179.711 513.336 178.227 513.492C176.82 513.648 176.078 513.727 176 513.727C175.141 513.727 174.398 513.453 173.773 512.906C173.227 512.359 172.875 511.539 172.719 510.445C172.719 509.586 172.953 508.883 173.422 508.336C173.969 507.711 174.672 507.32 175.531 507.164C175.609 507.164 176.352 507.086 177.758 506.93C179.242 506.773 181.156 506.578 183.5 506.344C185.844 506.109 188.5 505.914 191.469 505.758C194.438 505.523 197.523 505.328 200.727 505.172C200.961 504.938 201.391 504.742 202.016 504.586L202.719 504.469ZM280.531 523.336C281.625 521.148 282.797 518.297 284.047 514.781C285.297 511.188 285.922 507.164 285.922 502.711C285.922 499.273 285.414 495.797 284.398 492.281C283.461 489.234 282.328 486.5 281 484.078C279.75 481.578 278.383 479.391 276.898 477.516C275.414 475.562 273.891 473.883 272.328 472.477C270.844 471.07 269.438 469.898 268.109 468.961C265.219 466.93 262.523 465.523 260.023 464.742C257.602 463.961 255.57 463.57 253.93 463.57C251.664 464.273 249.789 464.977 248.305 465.68C246.82 466.383 246.039 466.734 245.961 466.734C245.492 466.969 244.984 467.086 244.438 467.086C243.422 467.086 242.641 466.734 242.094 466.031C239.359 467.516 236.742 470.211 234.242 474.117C231.742 478.023 229.672 482.789 228.031 488.414C226.938 492.086 226.117 495.758 225.57 499.43C225.023 503.102 224.75 506.695 224.75 510.211C224.75 515.133 225.297 519.469 226.391 523.219C227.172 525.719 228.148 527.906 229.32 529.781C230.492 531.656 231.781 533.258 233.188 534.586C234.594 535.836 236.039 536.891 237.523 537.75C239.086 538.531 240.531 539.156 241.859 539.625C245.453 540.953 249.281 541.617 253.344 541.617C256.859 541.617 260.219 541.148 263.422 540.211C265.844 539.508 268.617 537.75 271.742 534.938C274.945 532.125 277.875 528.258 280.531 523.336ZM271.859 463.688C273.422 464.781 275.062 466.148 276.781 467.789C278.578 469.43 280.336 471.344 282.055 473.531C283.773 475.719 285.375 478.219 286.859 481.031C288.344 483.766 289.633 486.891 290.727 490.406C291.898 494.391 292.484 498.492 292.484 502.711C292.484 506.695 291.938 510.68 290.844 514.664C289.828 518.648 288.305 522.555 286.273 526.383C283.539 531.383 280.297 535.719 276.547 539.391C272.797 542.984 269.047 545.328 265.297 546.422C261.391 547.594 257.406 548.18 253.344 548.18C248.656 548.18 244.086 547.398 239.633 545.836C237.914 545.211 236.117 544.391 234.242 543.375C232.367 542.281 230.531 540.914 228.734 539.273C226.938 537.633 225.258 535.68 223.695 533.414C222.211 531.07 221 528.297 220.062 525.094C218.812 520.875 218.188 515.914 218.188 510.211C218.188 506.461 218.461 502.594 219.008 498.609C219.633 494.547 220.531 490.523 221.703 486.539C223.891 479.039 226.742 472.906 230.258 468.141C233.852 463.375 237.758 460.328 241.977 459C243.148 458.688 244.359 458.531 245.609 458.531C246 458.531 246.391 458.531 246.781 458.531C247.172 458.531 247.562 458.609 247.953 458.766C248.969 458.375 250.336 457.906 252.055 457.359C252.836 457.125 253.773 457.008 254.867 457.008C257.211 457.008 259.867 457.594 262.836 458.766C265.883 459.938 268.891 461.578 271.859 463.688ZM360.219 505.758C361.859 505.836 363.539 505.875 365.258 505.875C366.977 505.875 368.656 505.875 370.297 505.875C373.5 505.875 376.469 505.797 379.203 505.641C382.016 505.484 384.398 505.133 386.352 504.586C389.086 503.805 391.195 502.906 392.68 501.891C394.242 500.797 395.414 499.625 396.195 498.375C396.977 497.125 397.484 495.758 397.719 494.273C398.031 492.789 398.266 491.266 398.422 489.703L398.656 487.359C398.656 486.031 398.383 484.508 397.836 482.789C397.367 480.992 396.586 479.234 395.492 477.516C394.398 475.797 393.031 474.234 391.391 472.828C389.75 471.422 387.836 470.406 385.648 469.781C381.43 468.688 377.797 467.906 374.75 467.438C371.703 466.969 368.93 466.734 366.43 466.734C363.695 466.734 361.156 466.969 358.812 467.438C356.547 467.906 354.047 468.453 351.312 469.078C351.625 471.734 351.898 474.664 352.133 477.867C352.445 480.992 352.68 484.078 352.836 487.125C353.07 490.172 353.227 493.062 353.305 495.797C353.461 498.531 353.539 500.758 353.539 502.477C353.539 502.867 353.539 503.336 353.539 503.883C353.539 504.43 353.578 505.016 353.656 505.641C354.75 505.641 355.844 505.641 356.938 505.641C358.031 505.641 359.125 505.68 360.219 505.758ZM400.18 529.312C404.242 534.234 407.25 538.336 409.203 541.617C411.156 544.898 412.172 546.617 412.25 546.773C412.484 547.242 412.602 547.75 412.602 548.297C412.602 548.922 412.445 549.469 412.133 549.938C411.898 550.484 411.469 550.914 410.844 551.227C410.375 551.461 409.867 551.578 409.32 551.578C407.992 551.578 407.055 550.992 406.508 549.82C406.43 549.82 405.453 548.258 403.578 545.133C401.781 542.008 398.969 538.102 395.141 533.414C393.188 531.07 391.117 528.727 388.93 526.383C386.742 524.039 384.711 521.93 382.836 520.055C380.961 518.18 379.398 516.617 378.148 515.367L376.156 513.609C375.844 513.297 375.57 512.906 375.336 512.438H370.531C368.734 512.438 366.977 512.438 365.258 512.438C363.539 512.438 361.781 512.398 359.984 512.32C358.969 512.242 357.953 512.203 356.938 512.203C356 512.203 355.062 512.203 354.125 512.203C354.359 515.641 354.633 519.352 354.945 523.336C355.336 527.242 355.688 530.914 356 534.352C356.391 537.789 356.703 540.68 356.938 543.023C357.25 545.367 357.406 546.617 357.406 546.773C357.406 547.633 357.094 548.375 356.469 549C355.922 549.625 355.141 549.977 354.125 550.055C353.266 550.055 352.523 549.781 351.898 549.234C351.352 548.688 351 547.984 350.844 547.125C350.844 546.891 350.727 545.836 350.492 543.961C350.336 542.086 350.102 539.781 349.789 537.047C349.477 534.234 349.164 531.148 348.852 527.789C348.539 524.43 348.227 521.148 347.914 517.945C347.68 514.664 347.445 511.656 347.211 508.922C347.055 506.188 346.977 504.039 346.977 502.477C346.977 500.523 346.898 498.141 346.742 495.328C346.664 492.516 346.508 489.547 346.273 486.422C346.039 483.297 345.766 480.211 345.453 477.164C345.219 474.039 344.945 471.227 344.633 468.727C344.477 468.57 344.359 468.375 344.281 468.141C344.203 467.828 344.086 467.359 343.93 466.734C343.93 466.422 344.008 466.031 344.164 465.562C344.086 465.172 344.008 464.742 343.93 464.273C343.93 463.805 343.852 463.258 343.695 462.633C343.695 461.852 343.969 461.148 344.516 460.523C345.062 459.898 345.883 459.508 346.977 459.352C347.758 459.352 348.461 459.625 349.086 460.172C349.711 460.719 350.141 461.539 350.375 462.633C353.109 461.93 355.727 461.344 358.227 460.875C360.727 460.406 363.461 460.172 366.43 460.172C369.164 460.172 372.172 460.445 375.453 460.992C378.734 461.461 382.68 462.281 387.289 463.453C390.18 464.234 392.758 465.523 395.023 467.32C397.289 469.117 399.164 471.148 400.648 473.414C402.133 475.68 403.266 478.062 404.047 480.562C404.828 482.984 405.219 485.25 405.219 487.359C405.219 488.062 405.18 488.609 405.102 489L404.984 490.406C404.828 492.047 404.555 493.844 404.164 495.797C403.773 497.672 403.031 499.547 401.938 501.422C400.844 503.297 399.203 505.094 397.016 506.812C394.828 508.453 391.859 509.781 388.109 510.797C387.484 511.031 386.781 511.227 386 511.383C385.297 511.461 384.516 511.578 383.656 511.734C384.672 512.672 385.844 513.805 387.172 515.133C388.5 516.461 389.867 517.906 391.273 519.469C392.758 520.953 394.242 522.555 395.727 524.273C397.289 525.914 398.773 527.594 400.18 529.312ZM482.094 543.023C483.812 543.414 484.672 544.703 484.672 546.891C484.516 547.75 484.086 548.414 483.383 548.883C482.758 549.352 481.898 549.547 480.805 549.469C480.727 549.469 478.891 549.234 475.297 548.766C471.781 548.219 466.977 547.945 460.883 547.945C457.836 547.945 454.711 548.062 451.508 548.297C448.305 548.531 445.336 548.766 442.602 549C439.945 549.234 437.719 549.469 435.922 549.703C434.203 549.938 433.266 550.055 433.109 550.055H430.883C430.023 550.055 429.281 549.781 428.656 549.234C428.031 548.688 427.68 547.984 427.602 547.125C427.523 546.891 427.367 545.836 427.133 543.961C426.977 542.086 426.742 539.781 426.43 537.047C426.195 534.234 425.922 531.148 425.609 527.789C425.297 524.43 424.984 521.148 424.672 517.945C424.438 514.664 424.203 511.656 423.969 508.922C423.812 506.188 423.734 504.039 423.734 502.477C423.734 500.133 423.617 497.125 423.383 493.453C423.227 489.781 422.992 486.031 422.68 482.203C422.367 478.297 422.016 474.586 421.625 471.07C421.234 467.555 420.844 464.742 420.453 462.633C420.453 461.852 420.727 461.148 421.273 460.523C421.82 459.898 422.641 459.508 423.734 459.352C425.453 459.352 426.508 460.172 426.898 461.812C427.445 461.031 428.188 460.562 429.125 460.406C429.281 460.406 430.219 460.289 431.938 460.055C433.734 459.82 435.961 459.586 438.617 459.352C441.352 459.039 444.359 458.766 447.641 458.531C450.922 458.297 454.164 458.18 457.367 458.18C463.773 458.18 468.852 458.453 472.602 459C476.43 459.547 478.422 459.859 478.578 459.938C480.297 460.328 481.156 461.617 481.156 463.805C480.766 465.523 479.438 466.383 477.172 466.383C475.609 466.148 473.812 465.875 471.781 465.562C470.062 465.406 467.953 465.25 465.453 465.094C463.031 464.859 460.336 464.742 457.367 464.742C454.32 464.742 451.195 464.859 447.992 465.094C444.789 465.328 441.82 465.602 439.086 465.914C436.43 466.148 434.203 466.383 432.406 466.617C430.688 466.852 429.75 466.969 429.594 466.969C428.891 466.969 428.227 466.773 427.602 466.383C427.992 468.961 428.344 471.93 428.656 475.289C428.969 478.648 429.242 482.008 429.477 485.367C429.711 488.727 429.906 491.93 430.062 494.977C430.219 497.945 430.297 500.406 430.297 502.359C431 502.281 432.133 502.164 433.695 502.008C435.258 501.773 437.094 501.578 439.203 501.422C441.391 501.188 443.773 500.992 446.352 500.836C448.93 500.68 451.586 500.523 454.32 500.367C455.18 500.367 455.922 500.68 456.547 501.305C457.25 501.93 457.602 502.711 457.602 503.648C457.602 504.508 457.289 505.289 456.664 505.992C456.039 506.617 455.297 506.93 454.438 506.93C451.625 507.086 448.812 507.281 446 507.516C443.266 507.672 440.805 507.867 438.617 508.102C436.43 508.258 434.594 508.453 433.109 508.688C431.625 508.844 430.766 508.922 430.531 508.922C430.688 511.578 430.922 514.547 431.234 517.828C431.547 521.031 431.859 524.273 432.172 527.555C432.484 530.758 432.758 533.766 432.992 536.578C433.305 539.391 433.578 541.656 433.812 543.375C434.75 543.297 436.156 543.141 438.031 542.906C439.984 542.672 442.211 542.438 444.711 542.203C447.211 541.969 449.828 541.773 452.562 541.617C455.375 541.461 458.148 541.383 460.883 541.383C467.289 541.383 472.367 541.656 476.117 542.203C479.945 542.75 481.938 543.023 482.094 543.023ZM520.531 509.039C524.75 509.039 528.383 509.195 531.43 509.508C534.477 509.742 536.898 509.977 538.695 510.211C538.305 509.117 537.953 508.141 537.641 507.281C537.406 506.422 537.172 505.68 536.938 505.055C536.469 503.18 535.805 500.914 534.945 498.258C534.086 495.523 533.109 492.672 532.016 489.703C531 486.656 529.945 483.648 528.852 480.68C527.758 477.633 526.703 474.859 525.688 472.359C524.516 474.859 523.266 477.633 521.938 480.68C520.688 483.648 519.438 486.656 518.188 489.703C517.016 492.672 515.883 495.523 514.789 498.258C513.773 500.992 512.953 503.297 512.328 505.172C512.172 505.797 511.938 506.461 511.625 507.164C511.391 507.789 511.117 508.531 510.805 509.391C513.93 509.156 517.172 509.039 520.531 509.039ZM543.266 503.297C543.656 504.781 544.32 506.891 545.258 509.625C546.273 512.359 547.367 515.367 548.539 518.648C549.711 521.852 550.922 525.133 552.172 528.492C553.5 531.852 554.672 534.938 555.688 537.75C556.703 540.484 557.562 542.75 558.266 544.547C558.969 546.266 559.32 547.164 559.32 547.242C559.477 547.555 559.555 547.945 559.555 548.414C559.555 549.898 558.852 550.914 557.445 551.461C557.211 551.617 556.82 551.695 556.273 551.695C555.648 551.695 555.023 551.5 554.398 551.109C553.852 550.797 553.461 550.289 553.227 549.586C553.148 549.352 552.68 548.18 551.82 546.07C550.961 543.883 549.906 541.227 548.656 538.102C547.484 534.977 546.156 531.578 544.672 527.906C543.188 524.156 541.742 520.602 540.336 517.242C538.773 517.008 536.977 516.734 534.945 516.422C533.227 516.266 531.117 516.109 528.617 515.953C526.195 515.719 523.5 515.602 520.531 515.602C518.5 515.602 516.391 515.68 514.203 515.836C512.094 515.914 510.023 516.031 507.992 516.188C506.586 519.547 505.062 523.141 503.422 526.969C501.781 530.797 500.219 534.352 498.734 537.633C497.25 540.914 496 543.727 494.984 546.07C493.969 548.336 493.422 549.586 493.344 549.82C492.719 551.07 491.703 551.695 490.297 551.695C489.75 551.695 489.32 551.617 489.008 551.461C487.68 550.836 487.016 549.82 487.016 548.414C487.016 548.023 487.133 547.594 487.367 547.125C487.367 547.047 487.797 546.07 488.656 544.195C489.516 542.242 490.57 539.82 491.82 536.93C493.148 533.961 494.594 530.719 496.156 527.203C497.719 523.609 499.203 520.172 500.609 516.891C498.422 517.125 496.625 517.359 495.219 517.594C493.812 517.75 492.992 517.828 492.758 517.828C491.898 517.828 491.156 517.555 490.531 517.008C489.984 516.461 489.633 515.641 489.477 514.547C489.477 513.688 489.711 512.984 490.18 512.438C490.727 511.812 491.43 511.422 492.289 511.266C492.445 511.266 493.539 511.148 495.57 510.914C497.68 510.602 500.297 510.289 503.422 509.977C504.047 508.57 504.555 507.281 504.945 506.109C505.414 504.938 505.805 503.922 506.117 503.062C506.82 500.953 507.836 498.18 509.164 494.742C510.57 491.227 512.055 487.594 513.617 483.844C515.18 480.016 516.742 476.344 518.305 472.828C519.945 469.234 521.352 466.266 522.523 463.922C522.68 462.672 523.305 461.773 524.398 461.227C524.711 461.07 525.219 460.992 525.922 460.992C526.547 460.992 527.094 461.109 527.562 461.344C528.578 461.891 529.164 462.789 529.32 464.039C530.336 466.383 531.508 469.352 532.836 472.945C534.242 476.539 535.609 480.25 536.938 484.078C538.344 487.828 539.594 491.461 540.688 494.977C541.781 498.414 542.641 501.188 543.266 503.297ZM629.633 543.023C630.492 543.18 631.156 543.609 631.625 544.312C632.094 544.938 632.289 545.797 632.211 546.891C631.82 548.688 630.531 549.547 628.344 549.469C628.266 549.469 626.43 549.234 622.836 548.766C619.32 548.219 614.555 547.945 608.539 547.945C605.492 547.945 602.367 548.062 599.164 548.297C595.961 548.531 593.031 548.766 590.375 549C587.719 549.234 585.531 549.469 583.812 549.703C582.094 549.938 581.195 550.055 581.117 550.055C581.039 550.055 580.922 550.055 580.766 550.055C580.609 550.055 580.219 550.016 579.594 549.938C579.438 549.938 579.281 549.938 579.125 549.938C578.969 550.016 578.734 550.055 578.422 550.055C577.562 550.055 576.82 549.781 576.195 549.234C575.648 548.688 575.297 547.984 575.141 547.125C575.141 546.891 575.023 545.836 574.789 543.961C574.633 542.086 574.398 539.781 574.086 537.047C573.773 534.234 573.461 531.148 573.148 527.789C572.836 524.43 572.523 521.148 572.211 517.945C571.977 514.664 571.742 511.656 571.508 508.922C571.352 506.188 571.273 504.039 571.273 502.477C571.273 500.133 571.156 497.125 570.922 493.453C570.766 489.781 570.531 486.031 570.219 482.203C569.906 478.297 569.555 474.586 569.164 471.07C568.773 467.555 568.383 464.742 567.992 462.633C567.992 461.852 568.266 461.148 568.812 460.523C569.359 459.898 570.18 459.508 571.273 459.352C572.055 459.352 572.758 459.586 573.383 460.055C574.008 460.523 574.398 461.148 574.555 461.93C574.945 464.117 575.336 467.047 575.727 470.719C576.117 474.312 576.469 478.102 576.781 482.086C577.094 486.07 577.328 489.938 577.484 493.688C577.719 497.359 577.836 500.289 577.836 502.477C577.836 504.352 577.953 507.125 578.188 510.797C578.5 514.469 578.852 518.375 579.242 522.516C579.633 526.578 580.023 530.523 580.414 534.352C580.805 538.18 581.117 541.188 581.352 543.375C582.289 543.297 583.695 543.141 585.57 542.906C587.523 542.672 589.75 542.438 592.25 542.203C594.75 541.969 597.406 541.773 600.219 541.617C603.031 541.461 605.805 541.383 608.539 541.383C614.867 541.383 619.906 541.656 623.656 542.203C627.484 542.75 629.477 543.023 629.633 543.023ZM645.102 502.477C645.102 503.961 645.18 506.07 645.336 508.805C645.57 511.539 645.805 514.547 646.039 517.828C646.352 521.031 646.664 524.352 646.977 527.789C647.289 531.148 647.602 534.234 647.914 537.047C648.227 539.781 648.461 542.086 648.617 543.961C648.852 545.758 648.969 546.695 648.969 546.773C648.969 547.633 648.656 548.375 648.031 549C647.484 549.625 646.703 549.977 645.688 550.055C644.828 550.055 644.086 549.781 643.461 549.234C642.914 548.688 642.562 547.984 642.406 547.125C642.406 546.891 642.289 545.836 642.055 543.961C641.898 542.086 641.664 539.781 641.352 537.047C641.039 534.234 640.727 531.148 640.414 527.789C640.102 524.43 639.789 521.148 639.477 517.945C639.242 514.664 639.008 511.656 638.773 508.922C638.617 506.188 638.539 504.039 638.539 502.477C638.539 500.133 638.422 497.125 638.188 493.453C638.031 489.781 637.797 486.031 637.484 482.203C637.172 478.297 636.82 474.586 636.43 471.07C636.039 467.555 635.648 464.742 635.258 462.633C635.258 461.852 635.531 461.148 636.078 460.523C636.625 459.898 637.445 459.508 638.539 459.352C639.32 459.352 640.023 459.586 640.648 460.055C641.273 460.523 641.664 461.148 641.82 461.93C642.211 464.117 642.602 467.047 642.992 470.719C643.383 474.312 643.734 478.102 644.047 482.086C644.359 486.07 644.594 489.938 644.75 493.688C644.984 497.359 645.102 500.289 645.102 502.477ZM737.211 545.602C738.07 545.758 738.773 546.148 739.32 546.773C739.867 547.398 740.102 548.258 740.023 549.352C739.945 550.211 739.594 550.875 738.969 551.344C738.344 551.891 737.484 552.164 736.391 552.164L734.164 551.93C732.602 551.773 730.414 551.578 727.602 551.344C724.789 551.109 721.391 550.914 717.406 550.758C713.5 550.602 709.125 550.523 704.281 550.523C701 550.523 697.641 550.562 694.203 550.641C690.766 550.797 687.406 550.953 684.125 551.109C680.922 551.266 677.875 551.422 674.984 551.578C672.094 551.812 669.555 552.008 667.367 552.164C665.18 552.32 663.422 552.438 662.094 552.516C660.844 552.672 660.18 552.75 660.102 552.75C659.242 552.75 658.5 552.438 657.875 551.812C657.25 551.266 656.898 550.484 656.82 549.469C656.82 548.609 657.094 547.867 657.641 547.242C658.188 546.617 658.891 546.266 659.75 546.188L661.625 545.016C661.625 544.938 662.211 544.039 663.383 542.32C664.555 540.523 666.039 538.258 667.836 535.523C669.711 532.711 671.742 529.625 673.93 526.266C676.117 522.906 678.227 519.625 680.258 516.422C682.367 513.141 684.281 510.133 686 507.398C687.719 504.586 689.008 502.438 689.867 500.953C690.883 499.078 692.25 496.734 693.969 493.922C695.688 491.109 697.523 488.102 699.477 484.898C701.508 481.695 703.578 478.492 705.688 475.289C707.797 472.008 709.75 469.078 711.547 466.5C709.906 466.266 707.641 466.031 704.75 465.797C701.859 465.484 698.422 465.328 694.438 465.328C691.391 465.328 688.266 465.445 685.062 465.68C681.859 465.914 678.891 466.188 676.156 466.5C673.5 466.734 671.273 466.969 669.477 467.203C667.758 467.438 666.82 467.555 666.664 467.555C665.805 467.555 665.062 467.281 664.438 466.734C663.891 466.188 663.539 465.367 663.383 464.273C663.383 463.414 663.617 462.711 664.086 462.164C664.633 461.539 665.336 461.148 666.195 460.992C666.352 460.992 667.289 460.875 669.008 460.641C670.805 460.406 673.031 460.172 675.688 459.938C678.422 459.625 681.43 459.352 684.711 459.117C687.992 458.883 691.234 458.766 694.438 458.766C700.844 458.766 705.922 459.039 709.672 459.586C713.5 460.133 715.531 460.445 715.766 460.523C716.312 459.742 717.133 459.352 718.227 459.352C718.93 459.352 719.594 459.547 720.219 459.938C721.078 460.641 721.508 461.539 721.508 462.633C721.508 463.18 721.312 463.844 720.922 464.625C719.438 466.578 717.523 469.273 715.18 472.711C712.914 476.148 710.531 479.82 708.031 483.727C705.609 487.555 703.266 491.305 701 494.977C698.734 498.648 696.938 501.695 695.609 504.117C694.906 505.367 693.891 507.086 692.562 509.273C691.234 511.383 689.75 513.727 688.109 516.305C686.469 518.805 684.75 521.461 682.953 524.273C681.156 527.086 679.398 529.82 677.68 532.477C675.961 535.055 674.359 537.477 672.875 539.742C671.391 542.008 670.141 543.883 669.125 545.367C671.391 545.211 673.891 545.055 676.625 544.898C679.438 544.742 682.367 544.586 685.414 544.43C688.539 544.273 691.703 544.156 694.906 544.078C698.109 544 701.234 543.961 704.281 543.961C709.281 543.961 713.773 544.039 717.758 544.195C721.742 544.352 725.141 544.547 727.953 544.781C730.844 545.016 733.07 545.211 734.633 545.367C736.195 545.523 737.055 545.602 737.211 545.602ZM768.734 509.039C772.953 509.039 776.586 509.195 779.633 509.508C782.68 509.742 785.102 509.977 786.898 510.211C786.508 509.117 786.156 508.141 785.844 507.281C785.609 506.422 785.375 505.68 785.141 505.055C784.672 503.18 784.008 500.914 783.148 498.258C782.289 495.523 781.312 492.672 780.219 489.703C779.203 486.656 778.148 483.648 777.055 480.68C775.961 477.633 774.906 474.859 773.891 472.359C772.719 474.859 771.469 477.633 770.141 480.68C768.891 483.648 767.641 486.656 766.391 489.703C765.219 492.672 764.086 495.523 762.992 498.258C761.977 500.992 761.156 503.297 760.531 505.172C760.375 505.797 760.141 506.461 759.828 507.164C759.594 507.789 759.32 508.531 759.008 509.391C762.133 509.156 765.375 509.039 768.734 509.039ZM791.469 503.297C791.859 504.781 792.523 506.891 793.461 509.625C794.477 512.359 795.57 515.367 796.742 518.648C797.914 521.852 799.125 525.133 800.375 528.492C801.703 531.852 802.875 534.938 803.891 537.75C804.906 540.484 805.766 542.75 806.469 544.547C807.172 546.266 807.523 547.164 807.523 547.242C807.68 547.555 807.758 547.945 807.758 548.414C807.758 549.898 807.055 550.914 805.648 551.461C805.414 551.617 805.023 551.695 804.477 551.695C803.852 551.695 803.227 551.5 802.602 551.109C802.055 550.797 801.664 550.289 801.43 549.586C801.352 549.352 800.883 548.18 800.023 546.07C799.164 543.883 798.109 541.227 796.859 538.102C795.688 534.977 794.359 531.578 792.875 527.906C791.391 524.156 789.945 520.602 788.539 517.242C786.977 517.008 785.18 516.734 783.148 516.422C781.43 516.266 779.32 516.109 776.82 515.953C774.398 515.719 771.703 515.602 768.734 515.602C766.703 515.602 764.594 515.68 762.406 515.836C760.297 515.914 758.227 516.031 756.195 516.188C754.789 519.547 753.266 523.141 751.625 526.969C749.984 530.797 748.422 534.352 746.938 537.633C745.453 540.914 744.203 543.727 743.188 546.07C742.172 548.336 741.625 549.586 741.547 549.82C740.922 551.07 739.906 551.695 738.5 551.695C737.953 551.695 737.523 551.617 737.211 551.461C735.883 550.836 735.219 549.82 735.219 548.414C735.219 548.023 735.336 547.594 735.57 547.125C735.57 547.047 736 546.07 736.859 544.195C737.719 542.242 738.773 539.82 740.023 536.93C741.352 533.961 742.797 530.719 744.359 527.203C745.922 523.609 747.406 520.172 748.812 516.891C746.625 517.125 744.828 517.359 743.422 517.594C742.016 517.75 741.195 517.828 740.961 517.828C740.102 517.828 739.359 517.555 738.734 517.008C738.188 516.461 737.836 515.641 737.68 514.547C737.68 513.688 737.914 512.984 738.383 512.438C738.93 511.812 739.633 511.422 740.492 511.266C740.648 511.266 741.742 511.148 743.773 510.914C745.883 510.602 748.5 510.289 751.625 509.977C752.25 508.57 752.758 507.281 753.148 506.109C753.617 504.938 754.008 503.922 754.32 503.062C755.023 500.953 756.039 498.18 757.367 494.742C758.773 491.227 760.258 487.594 761.82 483.844C763.383 480.016 764.945 476.344 766.508 472.828C768.148 469.234 769.555 466.266 770.727 463.922C770.883 462.672 771.508 461.773 772.602 461.227C772.914 461.07 773.422 460.992 774.125 460.992C774.75 460.992 775.297 461.109 775.766 461.344C776.781 461.891 777.367 462.789 777.523 464.039C778.539 466.383 779.711 469.352 781.039 472.945C782.445 476.539 783.812 480.25 785.141 484.078C786.547 487.828 787.797 491.461 788.891 494.977C789.984 498.414 790.844 501.188 791.469 503.297ZM855.805 544.078C860.18 542.828 863.734 540.797 866.469 537.984C869.203 535.094 871.352 531.773 872.914 528.023C874.477 524.273 875.531 520.328 876.078 516.188C876.625 511.969 876.898 507.906 876.898 504C876.898 498.844 876 494.273 874.203 490.289C872.484 486.227 870.336 482.75 867.758 479.859C865.18 476.891 862.406 474.508 859.438 472.711C856.469 470.914 853.773 469.703 851.352 469.078C847.602 468.062 844.359 467.359 841.625 466.969C838.969 466.578 836.508 466.383 834.242 466.383C831.977 466.383 829.828 466.578 827.797 466.969C825.844 467.281 823.734 467.711 821.469 468.258C821.781 470.914 822.055 473.883 822.289 477.164C822.602 480.367 822.875 483.57 823.109 486.773C823.344 489.898 823.5 492.867 823.578 495.68C823.734 498.414 823.812 500.68 823.812 502.477C823.812 503.805 823.891 505.602 824.047 507.867C824.203 510.055 824.359 512.516 824.516 515.25C824.75 517.984 824.984 520.836 825.219 523.805C825.531 526.695 825.805 529.508 826.039 532.242C826.352 534.898 826.625 537.32 826.859 539.508C827.094 541.695 827.289 543.375 827.445 544.547C829.711 544.703 832.094 544.82 834.594 544.898C837.172 544.898 839.711 544.898 842.211 544.898C845.336 544.898 848.109 544.859 850.531 544.781C852.953 544.625 854.711 544.391 855.805 544.078ZM852.992 462.75C856.039 463.609 859.32 465.094 862.836 467.203C866.43 469.312 869.75 472.086 872.797 475.523C875.844 478.883 878.383 482.945 880.414 487.711C882.445 492.477 883.461 497.906 883.461 504C883.461 512.047 882.641 518.844 881 524.391C879.438 529.938 877.406 534.508 874.906 538.102C872.406 541.617 869.633 544.352 866.586 546.305C863.539 548.18 860.531 549.547 857.562 550.406C856.156 550.797 854.008 551.07 851.117 551.227C848.305 551.383 845.297 551.461 842.094 551.461C840.062 551.461 838.031 551.422 836 551.344C834.047 551.344 832.25 551.305 830.609 551.227C828.969 551.227 827.562 551.188 826.391 551.109C825.297 551.031 824.555 550.992 824.164 550.992C823.305 550.992 822.562 550.641 821.938 549.938C821.391 549.234 821.117 548.297 821.117 547.125C821.039 546.891 820.883 545.836 820.648 543.961C820.492 542.086 820.258 539.781 819.945 537.047C819.711 534.234 819.438 531.148 819.125 527.789C818.812 524.43 818.5 521.148 818.188 517.945C817.953 514.664 817.719 511.656 817.484 508.922C817.328 506.188 817.25 504.039 817.25 502.477C817.25 500.523 817.172 498.102 817.016 495.211C816.938 492.32 816.781 489.312 816.547 486.188C816.312 482.984 816.039 479.859 815.727 476.812C815.414 473.688 815.102 470.875 814.789 468.375C814.633 468.219 814.477 467.984 814.32 467.672C814.164 467.281 814.008 466.734 813.852 466.031C813.852 465.406 813.969 464.859 814.203 464.391C814.203 464.234 814.164 464.039 814.086 463.805C814.086 463.492 814.047 463.102 813.969 462.633C813.969 461.852 814.242 461.148 814.789 460.523C815.336 459.898 816.156 459.508 817.25 459.352C818.969 459.352 820.023 460.172 820.414 461.812C822.758 461.188 824.984 460.719 827.094 460.406C829.281 460.016 831.664 459.82 834.242 459.82C836.664 459.82 839.359 460.055 842.328 460.523C845.375 460.914 848.93 461.656 852.992 462.75ZM957.172 523.336C958.266 521.148 959.438 518.297 960.688 514.781C961.938 511.188 962.562 507.164 962.562 502.711C962.562 499.273 962.055 495.797 961.039 492.281C960.102 489.234 958.969 486.5 957.641 484.078C956.391 481.578 955.023 479.391 953.539 477.516C952.055 475.562 950.531 473.883 948.969 472.477C947.484 471.07 946.078 469.898 944.75 468.961C941.859 466.93 939.164 465.523 936.664 464.742C934.242 463.961 932.211 463.57 930.57 463.57C928.305 464.273 926.43 464.977 924.945 465.68C923.461 466.383 922.68 466.734 922.602 466.734C922.133 466.969 921.625 467.086 921.078 467.086C920.062 467.086 919.281 466.734 918.734 466.031C916 467.516 913.383 470.211 910.883 474.117C908.383 478.023 906.312 482.789 904.672 488.414C903.578 492.086 902.758 495.758 902.211 499.43C901.664 503.102 901.391 506.695 901.391 510.211C901.391 515.133 901.938 519.469 903.031 523.219C903.812 525.719 904.789 527.906 905.961 529.781C907.133 531.656 908.422 533.258 909.828 534.586C911.234 535.836 912.68 536.891 914.164 537.75C915.727 538.531 917.172 539.156 918.5 539.625C922.094 540.953 925.922 541.617 929.984 541.617C933.5 541.617 936.859 541.148 940.062 540.211C942.484 539.508 945.258 537.75 948.383 534.938C951.586 532.125 954.516 528.258 957.172 523.336ZM948.5 463.688C950.062 464.781 951.703 466.148 953.422 467.789C955.219 469.43 956.977 471.344 958.695 473.531C960.414 475.719 962.016 478.219 963.5 481.031C964.984 483.766 966.273 486.891 967.367 490.406C968.539 494.391 969.125 498.492 969.125 502.711C969.125 506.695 968.578 510.68 967.484 514.664C966.469 518.648 964.945 522.555 962.914 526.383C960.18 531.383 956.938 535.719 953.188 539.391C949.438 542.984 945.688 545.328 941.938 546.422C938.031 547.594 934.047 548.18 929.984 548.18C925.297 548.18 920.727 547.398 916.273 545.836C914.555 545.211 912.758 544.391 910.883 543.375C909.008 542.281 907.172 540.914 905.375 539.273C903.578 537.633 901.898 535.68 900.336 533.414C898.852 531.07 897.641 528.297 896.703 525.094C895.453 520.875 894.828 515.914 894.828 510.211C894.828 506.461 895.102 502.594 895.648 498.609C896.273 494.547 897.172 490.523 898.344 486.539C900.531 479.039 903.383 472.906 906.898 468.141C910.492 463.375 914.398 460.328 918.617 459C919.789 458.688 921 458.531 922.25 458.531C922.641 458.531 923.031 458.531 923.422 458.531C923.812 458.531 924.203 458.609 924.594 458.766C925.609 458.375 926.977 457.906 928.695 457.359C929.477 457.125 930.414 457.008 931.508 457.008C933.852 457.008 936.508 457.594 939.477 458.766C942.523 459.938 945.531 461.578 948.5 463.688Z" fill="#4B9B1A"/>
</svg>
